# xmcd CD database file
# Copyright (C) 1993-1998 Ti Kan
#
# Track frame offsets:
# 182
# 3557
# 6382
# 9932
# 12707
# 15520
# 21182
# 24032
# 26832
# 29657
# 35957
# 38657
# 41057
# 43382
# 45832
# 48182
# 53657
# 57557
# 61045
# 64382
# 67832
# 71357
# 74732
# 78145
# 82682
# 85907
# 90232
# 95957
# 100232
# 103082
# 111632
# 114445
# 120107
# 123857
# 129782
# 135032
# 137807
# 143057
# 148232
# 151532
# 154157
# 161132
# 166832
# 171932
# 176957
# 182207
# 185657
# 191507
# 194957
# 197657
# 200282
# 203057
# 206395
# 210257
# 214832
# 219257
# 224282
# 228632
# 233657
# 241682
#
# Disc length: 3461 seconds
# Revision: 0
# Processed by: cddbd v1.4b41PL1 Copyright (c) Steve Scherf et al.
# Submitted via: CDSpectrumPro v3.3.333
#
DISCID=440d833c
DTITLE=Tommy Taylor's Old time sing-a-long - Old Time Singalong Favourites (2)
DYEAR=1900
DGENRE=
TTITLE0=I want a girl
TTITLE1=If you knew Susie
TTITLE2=How ya gonna keep 'em down on the farm
TTITLE3=Waiting for the Robert E Lee
TTITLE4=Margie
TTITLE5=Down by the riverside
TTITLE6=Yes Sir, that'd my baby
TTITLE7=Ma, he's makin' eyes at me
TTITLE8=Along the road to Gundagai
TTITLE9=Deep in the heart of Texas
TTITLE10=Take me back to the dear old blighty
TTITLE11=I do like to be beside the seaside
TTITLE12=Hello, hello who's ya lady friend?
TTITLE13=Maybe it's because I'm a Londoner
TTITLE14=The barrow boy song
TTITLE15=I've got a lovely bunch of coconuts
TTITLE16=Ain't she sweet
TTITLE17=Marie
TTITLE18=When the red, red, robin comes bob, bob, bobbin' along
TTITLE19=Ma' blushin' Rosie
TTITLE20=Don't bring Lulu
TTITLE21=Put you arms around me honey
TTITLE22=You're driving me crazy
TTITLE23=Bye, bye blackbird
TTITLE24=I'm forever blowing bubbles
TTITLE25=Hot diggity
TTITLE26=The loveliest night of the year
TTITLE27=Doggie in the window
TTITLE28=In the good old summertime
TTITLE29=Love is a beautiful song
TTITLE30=That's an Irish lullaby
TTITLE31=Cruisin' down the river
TTITLE32=When it's spring time in the Rockies
TTITLE33=You you you
TTITLE34=Moments to remember
TTITLE35=Pretty baby
TTITLE36=Anytime
TTITLE37=I'll be with you in apple blossom time
TTITLE38=After you're gone
TTITLE39=Shine on harvest moon
TTITLE40=We'll meet again
TTITLE41=It had to be you
TTITLE42=You made me love you
TTITLE43=The white cliffs of Dover
TTITLE44=Side by side
TTITLE45=You must have been a beautiful baby
TTITLE46=Heart of my heart
TTITLE47=Row, row, row
TTITLE48=California, here I come
TTITLE49=Sunny side up
TTITLE50=Swanee
TTITLE51=Toot-toot-Tootsie
TTITLE52=Bill Bailey won't you please come home
TTITLE53=Don't fence me in
TTITLE54=Have I told you lately
TTITLE55=Room full of Roses
TTITLE56=Blue eyes crying in the rain
TTITLE57=Your cheatin' heart
TTITLE58=Release me
TTITLE59=The hokey pokey
EXTD=
EXTT0=
EXTT1=
EXTT2=
EXTT3=
EXTT4=
EXTT5=
EXTT6=
EXTT7=
EXTT8=
EXTT9=
EXTT10=
EXTT11=
EXTT12=
EXTT13=
EXTT14=
EXTT15=
EXTT16=
EXTT17=
EXTT18=
EXTT19=
EXTT20=
EXTT21=
EXTT22=
EXTT23=
EXTT24=
EXTT25=
EXTT26=
EXTT27=
EXTT28=
EXTT29=
EXTT30=
EXTT31=
EXTT32=
EXTT33=
EXTT34=
EXTT35=
EXTT36=
EXTT37=
EXTT38=
EXTT39=
EXTT40=
EXTT41=
EXTT42=
EXTT43=
EXTT44=
EXTT45=
EXTT46=
EXTT47=
EXTT48=
EXTT49=
EXTT50=
EXTT51=
EXTT52=
EXTT53=
EXTT54=
EXTT55=
EXTT56=
EXTT57=
EXTT58=
EXTT59=
PLAYORDER=
